<svg width="280" height="57" viewBox="0 0 280 57" fill="none" xmlns="http://www.w3.org/2000/svg">
<path d="M57.432 44.48C55.192 44.48 53.144 43.984 51.288 42.992C49.432 42 48.024 40.592 47.064 38.768L49.944 36.656C50.584 38.192 51.56 39.376 52.872 40.208C54.216 41.04 55.816 41.456 57.672 41.456C59.336 41.456 60.648 41.104 61.608 40.4C62.6 39.696 63.096 38.768 63.096 37.616C63.096 36.88 62.872 36.224 62.424 35.648C61.976 35.04 61.128 34.592 59.88 34.304L54.504 33.104C52.264 32.592 50.664 31.792 49.704 30.704C48.744 29.616 48.264 28.256 48.264 26.624C48.264 25.344 48.616 24.176 49.32 23.12C50.056 22.032 51.096 21.168 52.44 20.528C53.784 19.856 55.352 19.52 57.144 19.52C59.384 19.52 61.272 20 62.808 20.96C64.376 21.888 65.528 23.216 66.264 24.944L63.432 26.816C62.92 25.312 62.072 24.224 60.888 23.552C59.704 22.88 58.456 22.544 57.144 22.544C56.024 22.544 55.048 22.72 54.216 23.072C53.384 23.392 52.744 23.856 52.296 24.464C51.88 25.04 51.672 25.712 51.672 26.48C51.672 27.216 51.912 27.904 52.392 28.544C52.904 29.184 53.816 29.648 55.128 29.936L60.744 31.184C62.888 31.664 64.392 32.4 65.256 33.392C66.12 34.384 66.552 35.632 66.552 37.136C66.552 39.376 65.704 41.168 64.008 42.512C62.344 43.824 60.152 44.48 57.432 44.48ZM101.48 20H105.32L97.2555 44H93.7515L86.9835 24.416L80.5515 44H77.0475L68.9835 20H72.8235L78.8715 39.968L85.3995 20H88.9035L95.4315 39.968L101.48 20ZM119.764 44.48C117.588 44.48 115.652 43.984 113.956 42.992C112.292 42 110.98 40.576 110.02 38.72C109.06 36.832 108.58 34.592 108.58 32C108.58 29.408 109.044 27.184 109.972 25.328C110.932 23.44 112.228 22 113.86 21.008C115.524 20.016 117.412 19.52 119.524 19.52C121.668 19.52 123.492 20 124.996 20.96C126.5 21.92 127.652 23.232 128.452 24.896C129.252 26.56 129.652 28.448 129.652 30.56C129.652 31.072 129.636 31.52 129.604 31.904C129.572 32.288 129.54 32.624 129.508 32.912H110.836V29.84H127.972L126.196 30.224C126.196 28.592 125.908 27.216 125.332 26.096C124.788 24.944 124.004 24.064 122.98 23.456C121.988 22.848 120.82 22.544 119.476 22.544C117.94 22.544 116.596 22.928 115.444 23.696C114.324 24.464 113.46 25.552 112.852 26.96C112.244 28.368 111.94 30.048 111.94 32C111.94 33.952 112.26 35.632 112.9 37.04C113.54 38.448 114.436 39.536 115.588 40.304C116.772 41.072 118.148 41.456 119.716 41.456C121.38 41.456 122.756 41.104 123.844 40.4C124.964 39.664 125.844 38.704 126.484 37.52L129.22 39.104C128.644 40.192 127.892 41.152 126.964 41.984C126.068 42.784 125.012 43.408 123.796 43.856C122.58 44.272 121.236 44.48 119.764 44.48ZM140.102 8.96V38C140.102 39.152 140.278 40.016 140.63 40.592C140.982 41.168 141.654 41.456 142.646 41.456C143.19 41.456 143.638 41.408 143.99 41.312C144.342 41.216 144.806 41.04 145.382 40.784L144.902 43.808C144.486 44.032 143.974 44.192 143.366 44.288C142.79 44.416 142.23 44.48 141.686 44.48C139.766 44.48 138.438 43.888 137.702 42.704C136.998 41.52 136.646 40 136.646 38.144V8.96H140.102ZM153.508 8.96V38C153.508 39.152 153.684 40.016 154.036 40.592C154.388 41.168 155.06 41.456 156.052 41.456C156.596 41.456 157.044 41.408 157.396 41.312C157.748 41.216 158.212 41.04 158.788 40.784L158.308 43.808C157.892 44.032 157.38 44.192 156.772 44.288C156.196 44.416 155.636 44.48 155.092 44.48C153.172 44.48 151.844 43.888 151.108 42.704C150.404 41.52 150.052 40 150.052 38.144V8.96H153.508Z" fill="#344859"/>
<path d="M182.946 15.584L183.714 18.656C183.682 18.656 183.634 18.656 183.57 18.656C183.506 18.656 183.442 18.656 183.378 18.656C181.874 18.656 180.706 18.992 179.874 19.664C179.074 20.336 178.674 21.376 178.674 22.784L176.61 21.68C176.61 20.432 176.882 19.36 177.426 18.464C177.97 17.536 178.69 16.832 179.586 16.352C180.514 15.84 181.554 15.584 182.706 15.584C182.77 15.584 182.818 15.584 182.85 15.584C182.882 15.584 182.914 15.584 182.946 15.584ZM175.746 41.12C177.986 41.12 179.73 41.648 180.978 42.704C182.226 43.728 182.85 45.088 182.85 46.784C182.85 48.32 182.354 49.648 181.362 50.768C180.402 51.888 179.074 52.752 177.378 53.36C175.714 54 173.826 54.32 171.714 54.32C168.13 54.32 165.426 53.68 163.602 52.4C161.81 51.152 160.914 49.616 160.914 47.792C160.914 46.512 161.346 45.36 162.21 44.336C163.074 43.344 164.45 42.768 166.338 42.608L166.098 43.28C165.042 42.992 164.146 42.496 163.41 41.792C162.674 41.088 162.306 40.096 162.306 38.816C162.306 37.6 162.754 36.512 163.65 35.552C164.578 34.592 165.954 34.016 167.778 33.824L170.274 34.976H169.65C168.178 35.104 167.09 35.488 166.386 36.128C165.714 36.736 165.378 37.456 165.378 38.288C165.378 39.216 165.714 39.92 166.386 40.4C167.058 40.88 167.97 41.12 169.122 41.12H175.746ZM171.762 51.488C173.522 51.488 174.994 51.28 176.178 50.864C177.362 50.48 178.258 49.952 178.866 49.28C179.474 48.64 179.778 47.936 179.778 47.168C179.778 46.208 179.394 45.44 178.626 44.864C177.89 44.32 176.658 44.048 174.93 44.048H167.97C166.882 44.048 165.954 44.336 165.186 44.912C164.418 45.52 164.034 46.32 164.034 47.312C164.034 48.56 164.722 49.568 166.098 50.336C167.474 51.104 169.362 51.488 171.762 51.488ZM171.426 19.52C173.282 19.52 174.914 19.872 176.322 20.576C177.73 21.248 178.834 22.192 179.634 23.408C180.434 24.592 180.834 25.968 180.834 27.536C180.834 29.104 180.418 30.496 179.586 31.712C178.786 32.928 177.682 33.888 176.274 34.592C174.866 35.264 173.25 35.6 171.426 35.6C168.418 35.6 166.082 34.848 164.418 33.344C162.786 31.84 161.97 29.904 161.97 27.536C161.97 25.968 162.37 24.592 163.17 23.408C163.97 22.192 165.074 21.248 166.482 20.576C167.922 19.872 169.57 19.52 171.426 19.52ZM171.426 22.304C169.73 22.304 168.306 22.784 167.154 23.744C166.034 24.704 165.474 25.968 165.474 27.536C165.474 29.104 166.05 30.384 167.202 31.376C168.354 32.336 169.762 32.816 171.426 32.816C173.09 32.816 174.482 32.336 175.602 31.376C176.754 30.384 177.33 29.104 177.33 27.536C177.33 25.968 176.77 24.704 175.65 23.744C174.53 22.784 173.122 22.304 171.426 22.304ZM196.279 44.48C194.775 44.48 193.383 44.192 192.103 43.616C190.823 43.008 189.783 42.064 188.983 40.784C188.215 39.504 187.831 37.84 187.831 35.792V20H191.287V34.88C191.287 37.088 191.751 38.736 192.679 39.824C193.607 40.912 195.095 41.456 197.143 41.456C198.071 41.456 198.951 41.28 199.783 40.928C200.647 40.576 201.399 40.064 202.039 39.392C202.711 38.688 203.239 37.824 203.623 36.8C204.007 35.776 204.199 34.592 204.199 33.248V20H207.655V44H204.631L204.439 40.016C203.927 41.008 203.271 41.84 202.471 42.512C201.703 43.184 200.791 43.68 199.735 44C198.711 44.32 197.559 44.48 196.279 44.48ZM219.935 20V44H216.479V20H219.935ZM218.447 15.392C217.583 15.392 216.879 15.136 216.335 14.624C215.823 14.08 215.567 13.376 215.567 12.512C215.567 11.648 215.823 10.96 216.335 10.448C216.879 9.904 217.583 9.632 218.447 9.632C219.311 9.632 219.999 9.904 220.511 10.448C221.055 10.96 221.327 11.648 221.327 12.512C221.327 13.376 221.055 14.08 220.511 14.624C219.999 15.136 219.311 15.392 218.447 15.392ZM237.64 44.48C235.72 44.48 233.96 43.984 232.36 42.992C230.792 42 229.528 40.576 228.568 38.72C227.64 36.832 227.176 34.592 227.176 32C227.176 29.344 227.672 27.088 228.664 25.232C229.656 23.376 230.968 21.968 232.6 21.008C234.232 20.016 236.008 19.52 237.928 19.52C239.88 19.52 241.576 20.064 243.016 21.152C244.456 22.208 245.416 23.632 245.896 25.424L245.464 25.712V8.96H248.92V44H245.896L245.56 37.952L246.04 37.712C245.816 39.152 245.288 40.384 244.456 41.408C243.624 42.4 242.616 43.168 241.432 43.712C240.248 44.224 238.984 44.48 237.64 44.48ZM238.024 41.456C239.496 41.456 240.792 41.072 241.912 40.304C243.032 39.504 243.896 38.368 244.504 36.896C245.144 35.424 245.464 33.696 245.464 31.712C245.464 29.792 245.144 28.16 244.504 26.816C243.896 25.44 243.048 24.384 241.96 23.648C240.872 22.912 239.624 22.544 238.216 22.544C235.848 22.544 233.992 23.408 232.648 25.136C231.304 26.832 230.632 29.12 230.632 32C230.632 34.88 231.288 37.184 232.6 38.912C233.912 40.608 235.72 41.456 238.024 41.456ZM267.233 44.48C265.057 44.48 263.121 43.984 261.425 42.992C259.761 42 258.449 40.576 257.489 38.72C256.529 36.832 256.049 34.592 256.049 32C256.049 29.408 256.513 27.184 257.441 25.328C258.401 23.44 259.697 22 261.329 21.008C262.993 20.016 264.881 19.52 266.993 19.52C269.137 19.52 270.961 20 272.465 20.96C273.969 21.92 275.121 23.232 275.921 24.896C276.721 26.56 277.121 28.448 277.121 30.56C277.121 31.072 277.105 31.52 277.073 31.904C277.041 32.288 277.009 32.624 276.977 32.912H258.305V29.84H275.441L273.665 30.224C273.665 28.592 273.377 27.216 272.801 26.096C272.257 24.944 271.473 24.064 270.449 23.456C269.457 22.848 268.289 22.544 266.945 22.544C265.409 22.544 264.065 22.928 262.913 23.696C261.793 24.464 260.929 25.552 260.321 26.96C259.713 28.368 259.409 30.048 259.409 32C259.409 33.952 259.729 35.632 260.368 37.04C261.009 38.448 261.905 39.536 263.057 40.304C264.241 41.072 265.617 41.456 267.185 41.456C268.849 41.456 270.225 41.104 271.313 40.4C272.433 39.664 273.313 38.704 273.953 37.52L276.689 39.104C276.113 40.192 275.361 41.152 274.433 41.984C273.537 42.784 272.481 43.408 271.265 43.856C270.049 44.272 268.705 44.48 267.233 44.48Z" fill="#657D8C"/>
<path d="M2 32.5056C6.95232 32.5056 6.97098 35.4901 11.9699 35.4901C16.9689 35.4901 16.9782 32.5056 21.9958 32.5056C27.0134 32.5056 27.0134 35.4901 32.031 35.4901C37.0487 35.4901 37.0393 32.5243 42.001 32.5056" stroke="#344859" stroke-width="3" stroke-linecap="round" stroke-linejoin="round"/>
<path d="M4.43433 24.3078C7.15764 25.0725 7.95971 26.9845 11.9701 26.9845C16.9783 26.9845 16.9783 24 21.9866 24C26.9949 24 27.0042 26.9845 32.0219 26.9845C36.0322 26.9845 36.8343 25.0725 39.5576 24.3078" stroke="#011826" stroke-width="3" stroke-linecap="round" stroke-linejoin="round"/>
<path d="M3.23096 41.086C6.96152 41.5523 7.42784 43.9958 11.9698 43.9958C16.9781 43.9958 16.9781 41.0114 21.9864 41.0114C26.9947 41.0114 27.004 43.9958 32.0216 43.9958C36.5636 43.9958 36.9926 41.543 40.7604 41.086" stroke="#657D8C" stroke-width="3" stroke-linecap="round" stroke-linejoin="round"/>
</svg>
