<svg width="64" height="44" viewBox="0 0 64 44" fill="none" xmlns="http://www.w3.org/2000/svg">
<path d="M2 18.9033C9.42831 18.9033 9.45628 24.8344 16.9545 24.8344C24.4528 24.8344 24.4668 18.9033 31.993 18.9033C39.5192 18.9033 39.5192 24.8344 47.0455 24.8344C54.5717 24.8344 54.5577 18.9404 62 18.9033" stroke="#344859" stroke-width="4" stroke-linecap="round" stroke-linejoin="round"/>
<path d="M5.65137 2.61164C9.73624 4.13147 10.9393 7.93103 16.9547 7.93103C24.4669 7.93103 24.4669 2 31.9792 2C39.4914 2 39.5054 7.93103 47.0316 7.93103C53.047 7.93103 54.2501 4.13147 58.335 2.61164" stroke="#011826" stroke-width="4" stroke-linecap="round" stroke-linejoin="round"/>
<path d="M3.84656 35.9552C9.44227 36.8819 10.1417 41.7379 16.9545 41.7379C24.4667 41.7379 24.4667 35.8069 31.979 35.8069C39.4912 35.8069 39.5052 41.7379 47.0314 41.7379C53.8442 41.7379 54.4877 36.8634 60.1394 35.9552" stroke="#657D8C" stroke-width="4" stroke-linecap="round" stroke-linejoin="round"/>
</svg>
